<svg width="24" height="24" viewBox="0 0 24 24" fill="none" xmlns="http://www.w3.org/2000/svg">
<path d="M0 12C-2.34822e-08 13.5759 0.310389 15.1363 0.913446 16.5922C1.5165 18.0481 2.40042 19.371 3.51472 20.4853C4.62902 21.5996 5.95189 22.4835 7.4078 23.0866C8.86371 23.6896 10.4241 24 12 24C13.5759 24 15.1363 23.6896 16.5922 23.0866C18.0481 22.4835 19.371 21.5996 20.4853 20.4853C21.5996 19.371 22.4835 18.0481 23.0866 16.5922C23.6896 15.1363 24 13.5759 24 12C24 10.4241 23.6896 8.86371 23.0866 7.4078C22.4835 5.95189 21.5996 4.62902 20.4853 3.51472C19.371 2.40042 18.0481 1.5165 16.5922 0.913446C15.1363 0.310389 13.5759 0 12 0C10.4241 0 8.86371 0.310389 7.4078 0.913446C5.95189 1.5165 4.62902 2.40042 3.51472 3.51472C2.40042 4.62902 1.5165 5.95189 0.913446 7.4078C0.310389 8.86371 -2.34822e-08 10.4241 0 12Z" fill="#005C9D"/>
<path d="M9.37471 11.7549H7.56704C7.36619 11.7549 7.18359 11.9192 7.18359 12.1383V15.9545H9.7399V12.1201C9.7399 11.9192 9.57556 11.7549 9.37471 11.7549ZM12.99 10.2028H11.1824C10.9815 10.2028 10.7989 10.3672 10.7989 10.5863V15.9545H13.3552V10.568C13.3735 10.3672 13.2092 10.2028 12.99 10.2028ZM16.6236 8.01172H14.816C14.6151 8.01172 14.4325 8.17605 14.4325 8.39517V15.9545H16.9888V8.3769C17.0071 8.17605 16.8428 8.01172 16.6236 8.01172Z" fill="white"/>
</svg>
