<svg width="24" height="24" viewBox="0 0 24 24" fill="none" xmlns="http://www.w3.org/2000/svg">
<path d="M0 12C-2.34822e-08 13.5759 0.310389 15.1363 0.913446 16.5922C1.5165 18.0481 2.40042 19.371 3.51472 20.4853C4.62902 21.5996 5.95189 22.4835 7.4078 23.0866C8.86371 23.6896 10.4241 24 12 24C13.5759 24 15.1363 23.6896 16.5922 23.0866C18.0481 22.4835 19.371 21.5996 20.4853 20.4853C21.5996 19.371 22.4835 18.0481 23.0866 16.5922C23.6896 15.1363 24 13.5759 24 12C24 10.4241 23.6896 8.86371 23.0866 7.4078C22.4835 5.95189 21.5996 4.62902 20.4853 3.51472C19.371 2.40042 18.0481 1.5165 16.5922 0.913446C15.1363 0.310389 13.5759 0 12 0C10.4241 0 8.86371 0.310389 7.4078 0.913446C5.95189 1.5165 4.62902 2.40042 3.51472 3.51472C2.40042 4.62902 1.5165 5.95189 0.913446 7.4078C0.310389 8.86371 -2.34822e-08 10.4241 0 12Z" fill="#005C9D"/>
<path d="M15.4567 9.96131H15.4467C15.4142 9.96131 15.3812 9.96131 15.3467 9.96431H15.3162C15.2782 9.96431 15.2402 9.96881 15.2022 9.97231L15.1662 9.97531L15.1022 9.98181C15.0577 9.98681 15.0133 9.99231 14.9688 9.99931L14.9188 10.0073L14.8908 10.0123L14.8443 10.0208C14.819 10.0251 14.7935 10.0301 14.7678 10.0358C14.7358 10.0423 14.7038 10.0498 14.6723 10.0573C14.6408 10.0648 14.6058 10.0738 14.5723 10.0828C14.5388 10.0918 14.5068 10.1008 14.4724 10.1108H14.4654C13.751 10.329 13.126 10.7714 12.6827 11.3725L10.3616 8.60857L9.71875 7.84271C10.1918 7.43712 10.7646 7.16522 11.378 7.05509C11.9913 6.94496 12.6229 7.0006 13.2075 7.21627C13.7922 7.43194 14.3086 7.7998 14.7035 8.28186C15.0983 8.76391 15.3573 9.34267 15.4537 9.95831L15.4567 9.96131Z" fill="white"/>
<path d="M9.63897 13.9602L12.152 16.9597H8.49919C7.64355 16.9596 6.81758 16.6461 6.17743 16.0784C5.53728 15.5106 5.12733 14.728 5.02508 13.8785C4.92284 13.029 5.13538 12.1715 5.62252 11.468C6.10967 10.7646 6.83765 10.264 7.66884 10.061L6.78351 9.00566L7.54937 8.36328L12.2485 13.9622L9.63897 13.9602Z" fill="white"/>
<path d="M18.9995 13.4604C18.9984 14.3881 18.6294 15.2776 17.9734 15.9336C17.3174 16.5896 16.4279 16.9587 15.5001 16.9597H13.4615L10.9495 13.9603H13.553L8.3125 7.72296L9.07786 7.08008L9.72123 7.84593L10.3641 8.61179L12.6852 11.3758C13.1284 10.7746 13.7535 10.3322 14.4678 10.114H14.4748C14.5073 10.104 14.5398 10.095 14.5748 10.086C14.6098 10.077 14.6408 10.0685 14.6748 10.0605C14.7088 10.0525 14.7383 10.0455 14.7703 10.039C14.8023 10.0325 14.8203 10.0285 14.8468 10.024L14.8933 10.0155L14.9213 10.0105L14.9712 10.0025C15.0157 9.99553 15.0602 9.99003 15.1047 9.98503L15.1687 9.97853L15.2047 9.97553C15.2427 9.97203 15.2807 9.96953 15.3187 9.96753H15.3492C15.3817 9.96753 15.4147 9.96753 15.4492 9.96454H15.4991C16.4265 9.96533 17.3157 10.3337 17.9718 10.989C18.6279 11.6443 18.9975 12.5331 18.9995 13.4604Z" fill="white"/>
</svg>
