<svg width="24" height="24" viewBox="0 0 24 24" fill="none" xmlns="http://www.w3.org/2000/svg">
<path d="M0 12C-2.34822e-08 13.5759 0.310389 15.1363 0.913446 16.5922C1.5165 18.0481 2.40042 19.371 3.51472 20.4853C4.62902 21.5996 5.95189 22.4835 7.4078 23.0866C8.86371 23.6896 10.4241 24 12 24C13.5759 24 15.1363 23.6896 16.5922 23.0866C18.0481 22.4835 19.371 21.5996 20.4853 20.4853C21.5996 19.371 22.4835 18.0481 23.0866 16.5922C23.6896 15.1363 24 13.5759 24 12C24 10.4241 23.6896 8.86371 23.0866 7.4078C22.4835 5.95189 21.5996 4.62902 20.4853 3.51472C19.371 2.40042 18.0481 1.5165 16.5922 0.913446C15.1363 0.310389 13.5759 0 12 0C10.4241 0 8.86371 0.310389 7.4078 0.913446C5.95189 1.5165 4.62902 2.40042 3.51472 3.51472C2.40042 4.62902 1.5165 5.95189 0.913446 7.4078C0.310389 8.86371 -2.34822e-08 10.4241 0 12Z" fill="#005C9D"/>
<path opacity="0.5" d="M6.16406 9.77891L15.7265 7.2168L17.4394 13.6099L7.87702 16.172L6.16406 9.77891Z" fill="white"/>
<path d="M7.03516 9.54492H17.8352V17.345H7.03516V9.54492Z" fill="white"/>
<path d="M15.3466 14.3406C15.6666 14.3723 15.9792 14.2308 16.1666 13.9696C16.354 13.7083 16.3878 13.3668 16.2553 13.0739C16.1227 12.7809 15.8439 12.581 15.5239 12.5493C15.2039 12.5176 14.8913 12.659 14.7039 12.9203C14.5164 13.1816 14.4826 13.523 14.6152 13.816C14.7478 14.109 15.0266 14.3089 15.3466 14.3406Z" fill="#005C9D"/>
</svg>
