<svg width="12" height="12" viewBox="0 0 12 12" fill="none" xmlns="http://www.w3.org/2000/svg">
<path d="M-2.62268e-07 6C-1.17421e-07 9.31371 2.68629 12 6 12C9.31371 12 12 9.31371 12 6C12 2.68629 9.31371 5.46559e-07 6 6.91406e-07C2.68629 8.36253e-07 -4.07115e-07 2.68629 -2.62268e-07 6ZM6.62878 3.57404L8.75829 5.70343C8.77053 5.71298 8.78241 5.72314 8.79355 5.73441C8.8669 5.80776 8.90314 5.90388 8.90266 6C8.90327 6.096 8.8669 6.19225 8.79355 6.26559C8.78229 6.27686 8.77053 6.28714 8.75829 6.29657L6.6289 8.42596C6.48343 8.57143 6.24759 8.57143 6.10212 8.42596C5.95665 8.28049 5.95665 8.04465 6.10212 7.89906L7.62857 6.37249L3.46984 6.37249C3.26412 6.37249 3.09735 6.20571 3.09735 6C3.09735 5.79429 3.26412 5.62751 3.46984 5.62751L7.62857 5.62751L6.102 4.10082C5.95653 3.95535 5.95653 3.71951 6.102 3.57392C6.24747 3.42845 6.48331 3.42845 6.62878 3.57404Z" fill="#005C9D"/>
</svg>
