<svg width="18" height="18" viewBox="0 0 18 18" fill="none" xmlns="http://www.w3.org/2000/svg">
  <path
    d="M12.0492 6.23633C12.0492 6.15898 11.9859 6.0957 11.9086 6.0957L10.7484 6.10098L9.00117 8.18398L7.25566 6.10273L6.09375 6.09746C6.01641 6.09746 5.95312 6.15898 5.95312 6.23809C5.95312 6.27148 5.96543 6.30313 5.98652 6.32949L8.27344 9.0541L5.98652 11.777C5.96543 11.8033 5.95312 11.835 5.95312 11.8684C5.95312 11.9457 6.01641 12.009 6.09375 12.009L7.25566 12.0037L9.00117 9.9207L10.7467 12.002L11.9068 12.0072C11.9842 12.0072 12.0475 11.9457 12.0475 11.8666C12.0475 11.8332 12.0352 11.8016 12.0141 11.7752L9.73066 9.05234L12.0176 6.32773C12.0387 6.30313 12.0492 6.26973 12.0492 6.23633Z"
    fill="black" />
  <path
    d="M9 1.14258C4.65117 1.14258 1.125 4.66875 1.125 9.01758C1.125 13.3664 4.65117 16.8926 9 16.8926C13.3488 16.8926 16.875 13.3664 16.875 9.01758C16.875 4.66875 13.3488 1.14258 9 1.14258ZM9 15.5566C5.38945 15.5566 2.46094 12.6281 2.46094 9.01758C2.46094 5.40703 5.38945 2.47852 9 2.47852C12.6105 2.47852 15.5391 5.40703 15.5391 9.01758C15.5391 12.6281 12.6105 15.5566 9 15.5566Z"
    fill="black" />
</svg>