<svg width="36" height="36" viewBox="0 0 36 36" fill="none" xmlns="http://www.w3.org/2000/svg">
  <circle cx="18.0039" cy="18" r="17.25" fill="#25CB85" />
  <path
    d="M25.2875 13.1887C25.0552 12.9554 24.7396 12.8242 24.4104 12.8242C24.0812 12.8242 23.7655 12.9554 23.5333 13.1887L15.1537 21.5684L11.4905 17.9037C11.2583 17.6704 10.9427 17.5392 10.6135 17.5392C10.2842 17.5392 9.96861 17.6704 9.73639 17.9037C9.50258 18.136 9.37109 18.452 9.37109 18.7816C9.37109 19.1112 9.50258 19.4271 9.73639 19.6594L14.2797 24.1996C14.5119 24.433 14.8275 24.5641 15.1567 24.5641C15.4859 24.5641 15.8016 24.433 16.0338 24.1996L25.2951 14.9398C25.5276 14.7073 25.6576 14.3915 25.6562 14.0627C25.6548 13.7338 25.522 13.4192 25.2875 13.1887Z"
    fill="white" />
</svg>