<svg width="100%" height="256" viewBox="0 0 100% 256" fill="none" xmlns="http://www.w3.org/2000/svg">
<rect width="100%" height="256" fill="url(#paint0_linear_821_513)"/>
<mask id="mask0_821_513" style="mask-type:alpha" maskUnits="userSpaceOnUse" x="0" y="0" width="100%" height="256">
<rect width="100%" height="256" fill="url(#paint1_linear_821_513)"/>
</mask>
<g mask="url(#mask0_821_513)">
<circle opacity="0.3" cx="48" cy="25" r="131" fill="url(#paint2_linear_821_513)"/>
<path opacity="0.2" d="M260.495 -46.4194C277.393 -19.9233 262.076 14.9957 231.137 20.5076L176.531 30.2358C141.56 36.4661 113.548 1.27246 127.736 -31.0707L152.516 -87.5633C166.704 -119.906 211.568 -123.133 230.669 -93.1836L260.495 -46.4194Z" fill="url(#paint3_linear_821_513)"/>
<path opacity="0.3" d="M293.003 163.064C302.512 188.331 334.409 195.79 354.137 177.36L388.955 144.831C411.254 123.999 401.49 86.612 371.946 79.7036L320.343 67.6369C290.8 60.7285 265.469 89.9092 276.218 118.469L293.003 163.064Z" fill="url(#paint4_linear_821_513)"/>
</g>
<defs>
<linearGradient id="paint0_linear_821_513" x1="188" y1="256" x2="188" y2="3.0992e-05" gradientUnits="userSpaceOnUse">
<stop stop-color="#005C9D"/>
<stop offset="1" stop-color="#009ECF"/>
</linearGradient>
<linearGradient id="paint1_linear_821_513" x1="188" y1="256" x2="188" y2="3.0992e-05" gradientUnits="userSpaceOnUse">
<stop stop-color="#005C9D"/>
<stop offset="1" stop-color="#009ECF"/>
</linearGradient>
<linearGradient id="paint2_linear_821_513" x1="191" y1="97.5" x2="89.5" y2="41" gradientUnits="userSpaceOnUse">
<stop stop-color="white"/>
<stop offset="1" stop-color="white" stop-opacity="0"/>
</linearGradient>
<linearGradient id="paint3_linear_821_513" x1="127.5" y1="13" x2="281.413" y2="-36.1916" gradientUnits="userSpaceOnUse">
<stop stop-color="white"/>
<stop offset="1" stop-color="white" stop-opacity="0"/>
</linearGradient>
<linearGradient id="paint4_linear_821_513" x1="474.89" y1="99.6402" x2="281.666" y2="148.515" gradientUnits="userSpaceOnUse">
<stop stop-color="white"/>
<stop offset="1" stop-color="white" stop-opacity="0"/>
</linearGradient>
</defs>
</svg>
