<svg width="100" height="72" viewBox="0 0 100 72" fill="none" xmlns="http://www.w3.org/2000/svg">
  <path
    d="M74.7106 21.1393C72.3176 21.1595 69.9397 21.5204 67.6484 22.2109C67.1503 19.0659 65.8206 16.1111 63.7968 13.6527C61.773 11.1943 59.1288 9.32165 56.138 8.22866C53.1472 7.13566 49.9186 6.86209 46.7865 7.43628C43.6545 8.01047 40.7329 9.41154 38.3243 11.4944L33.7305 6.02179C37.1109 3.12356 41.204 1.18058 45.5867 0.393624C49.9693 -0.393333 54.4827 0.00427899 58.6603 1.54538C62.8379 3.08649 66.5281 5.71517 69.3498 9.1598C72.1715 12.6044 74.0221 16.74 74.7106 21.1393Z"
    fill="white" />
  <path
    d="M51.1026 71.1457H25.0006C18.8868 71.1446 12.9852 68.9035 8.41157 64.8463C3.83794 60.7891 0.9092 55.1969 0.17903 49.1268C-0.55114 43.0567 0.967851 36.9294 4.44885 31.9033C7.92986 26.8772 13.1316 23.3006 19.0708 21.8496L12.7409 14.3087L18.2135 9.71484L51.792 49.7233H33.1452L51.1026 71.1457ZM24.4755 28.2795C22.13 28.314 19.8142 28.8101 17.6604 29.7396C15.5066 30.669 13.557 32.0136 11.9228 33.6965C10.2887 35.3794 9.002 37.3677 8.13626 39.5479C7.27052 41.7281 6.84267 44.0575 6.87715 46.403C6.91163 48.7485 7.40775 51.0643 8.3372 53.2181C9.26665 55.3719 10.6112 57.3215 12.2941 58.9557C13.9771 60.5898 15.9654 61.8765 18.1456 62.7422C20.3257 63.608 22.6551 64.0358 25.0006 64.0014H35.7994L17.842 42.5682H36.4566L24.4755 28.2795Z"
    fill="white" />
  <path
    d="M75.0107 71.1459H60.4468L42.5038 49.7271H61.1077L23.6641 5.14266L29.1331 0.548828L54.91 31.2446C57.452 27.8172 60.829 25.0973 64.7194 23.3438C68.6098 21.5904 72.8842 20.8617 77.1358 21.2272C81.3874 21.5927 85.4747 23.0402 89.0087 25.4318C92.5428 27.8235 95.406 31.0798 97.3259 34.8908C99.2457 38.7018 100.158 42.9408 99.9768 47.2042C99.7953 51.4676 98.5258 55.6136 96.289 59.2477C94.0522 62.8818 90.9226 65.883 87.198 67.9656C83.4735 70.0483 79.2779 71.1431 75.0107 71.1459ZM63.7833 64.0016H75.0107C78.1324 64.0003 81.1993 63.1808 83.9057 61.6249C86.612 60.0689 88.8633 57.8308 90.4351 55.1336C92.0069 52.4364 92.8443 49.3744 92.8639 46.2527C92.8835 43.131 92.0845 40.0587 90.5467 37.342C89.0089 34.6253 86.7858 32.3591 84.0992 30.7693C81.4126 29.1795 78.3562 28.3216 75.2347 28.2812C72.1132 28.2408 69.0356 29.0192 66.3087 30.5388C63.5818 32.0585 61.3008 34.2663 59.6931 36.9423L76.4395 56.8715H57.807L63.7833 64.0016Z"
    fill="white" />
</svg>